<svg width="20" height="20" viewBox="0 0 20 20" fill="none" xmlns="http://www.w3.org/2000/svg">
<path d="M9.08034 8.21125C9.3392 8.42482 9.66433 8.54162 9.99988 8.54162C10.3355 8.54162 10.6607 8.42482 10.9195 8.21125C10.9947 8.13549 11.0373 8.03336 11.0382 7.92664C11.0392 7.81992 10.9984 7.71706 10.9245 7.64C10.8493 7.5617 10.7469 7.51517 10.6384 7.50998C10.5299 7.50479 10.4236 7.54132 10.3412 7.61208C10.2415 7.68154 10.1213 7.71544 9.99988 7.70833C9.8793 7.71486 9.75991 7.68131 9.66034 7.61292C9.5808 7.537 9.47449 7.49561 9.36456 7.49774C9.25463 7.49988 9.15001 7.54538 9.07348 7.62432C8.99695 7.70327 8.95473 7.80926 8.95602 7.9192C8.9573 8.02914 9.00199 8.13412 9.08034 8.21125ZM8.74992 6.25C8.86043 6.25 8.96641 6.2061 9.04455 6.12796C9.12269 6.04982 9.16659 5.94384 9.16659 5.83333V5.41667C9.16659 5.30616 9.12269 5.20018 9.04455 5.12204C8.96641 5.0439 8.86043 5 8.74992 5C8.63941 5 8.53343 5.0439 8.45529 5.12204C8.37715 5.20018 8.33325 5.30616 8.33325 5.41667V5.83333C8.33325 5.94384 8.37715 6.04982 8.45529 6.12796C8.53343 6.2061 8.63941 6.25 8.74992 6.25ZM11.2499 6.25C11.3604 6.25 11.4664 6.2061 11.5446 6.12796C11.6227 6.04982 11.6666 5.94384 11.6666 5.83333V5.41667C11.6666 5.30616 11.6227 5.20018 11.5446 5.12204C11.4664 5.0439 11.3604 5 11.2499 5C11.1394 5 11.0335 5.0439 10.9553 5.12204C10.8772 5.20018 10.8333 5.30616 10.8333 5.41667V5.83333C10.8333 5.94384 10.8772 6.04982 10.9553 6.12796C11.0335 6.2061 11.1394 6.25 11.2499 6.25Z" fill="black"/>
<path d="M17.5 15.4167H16.7209L16.5542 13.3875C16.5144 12.9589 16.3807 12.5444 16.1625 12.1733C15.7906 11.5484 15.1947 11.0885 14.4959 10.8871L12.0834 10.1946V9.67542C12.651 9.22028 13.0544 8.59217 13.2321 7.88667C13.6122 7.81285 13.9548 7.60924 14.2013 7.31068C14.4478 7.01212 14.5828 6.63717 14.5834 6.25C14.5829 6.05686 14.5374 5.86649 14.4506 5.69395C14.3639 5.5214 14.2381 5.37141 14.0834 5.25584L14.3421 4.61292C14.549 4.09344 14.6253 3.53112 14.5642 2.97529C14.5031 2.41947 14.3065 1.88713 13.9917 1.425C13.7028 0.98634 13.3094 0.626421 12.8468 0.377664C12.3842 0.128907 11.8669 -0.000876131 11.3417 4.45133e-06H7.66671C7.5809 1.69881e-05 7.4972 0.0265178 7.42702 0.0758869C7.35685 0.125256 7.30362 0.195086 7.27462 0.275838C7.20585 0.48672 7.1558 0.703252 7.12504 0.922921C6.43462 1.22009 5.88334 1.76913 5.58337 2.45834C5.4527 2.80384 5.39841 3.17354 5.42423 3.54202C5.45005 3.9105 5.55537 4.26902 5.73296 4.59292L6.02462 5.18C5.83941 5.29056 5.68604 5.44725 5.57949 5.6348C5.47294 5.82234 5.41685 6.03431 5.41671 6.25C5.41768 6.63635 5.55286 7.01037 5.79911 7.30807C6.04536 7.60578 6.38739 7.80868 6.76671 7.88209C6.94381 8.58957 7.34773 9.21959 7.91671 9.67584V10.1946L5.50587 10.8871C4.80488 11.0894 4.20738 11.5513 3.83504 12.1788C3.77571 12.2825 3.72243 12.3897 3.67546 12.4996H2.91671C2.74596 12.4996 2.57702 12.5346 2.42032 12.6024C2.26362 12.6702 2.12247 12.7694 2.00558 12.8939C1.88869 13.0183 1.79853 13.1654 1.74068 13.3261C1.68283 13.4867 1.6585 13.6575 1.66921 13.8279L1.98171 18.8279C2.00153 19.1453 2.14159 19.4432 2.37336 19.661C2.60513 19.8788 2.91118 20 3.22921 20H11.3542C11.6722 20 11.9782 19.8788 12.2099 19.6611C12.4417 19.4435 12.5818 19.1457 12.6017 18.8283L12.6325 18.3333H14.1667C14.1667 18.7754 14.3423 19.1993 14.6549 19.5118C14.9674 19.8244 15.3913 20 15.8334 20H16.6667C17.1087 20 17.5327 19.8244 17.8452 19.5118C18.1578 19.1993 18.3334 18.7754 18.3334 18.3333V16.25C18.3334 16.029 18.2456 15.817 18.0893 15.6607C17.933 15.5045 17.7211 15.4167 17.5 15.4167ZM7.98671 0.833338H11.3417C11.7303 0.833711 12.1128 0.930705 12.4546 1.11559C12.7965 1.30048 13.087 1.56746 13.3 1.8925C13.5381 2.24189 13.6869 2.64433 13.7333 3.06456C13.7797 3.48479 13.7224 3.91 13.5663 4.30292L13.3334 4.885V4.58334C13.3334 4.14131 13.1578 3.71739 12.8452 3.40483C12.5327 3.09227 12.1087 2.91667 11.6667 2.91667H8.36129C8.15455 2.6159 8.01422 2.27456 7.94963 1.91535C7.88504 1.55613 7.89768 1.18729 7.98671 0.833338ZM6.35921 2.76875C6.51322 2.41011 6.76962 2.10487 7.09629 1.89125C7.13531 2.33491 7.27327 2.76419 7.50004 3.1475C7.24744 3.29276 7.03748 3.50188 6.89121 3.75389C6.74495 4.00591 6.66752 4.29195 6.66671 4.58334V4.595L6.48004 4.22C6.35513 4.00161 6.27959 3.7585 6.25871 3.50778C6.23784 3.25705 6.27214 3.0048 6.35921 2.76875ZM7.52879 7.44084C7.50702 7.33909 7.45083 7.24797 7.36969 7.18284C7.28854 7.11771 7.18742 7.08257 7.08337 7.08334C6.86236 7.08334 6.6504 6.99554 6.49412 6.83926C6.33784 6.68298 6.25004 6.47102 6.25004 6.25C6.25004 6.1395 6.29394 6.03352 6.37208 5.95538C6.45022 5.87724 6.5562 5.83334 6.66671 5.83334H7.08337C7.19388 5.83334 7.29986 5.78944 7.378 5.7113C7.45614 5.63316 7.50004 5.52718 7.50004 5.41667V4.58334C7.50004 4.36232 7.58784 4.15036 7.74412 3.99408C7.9004 3.8378 8.11236 3.75 8.33337 3.75H11.6667C11.8877 3.75 12.0997 3.8378 12.256 3.99408C12.4122 4.15036 12.5 4.36232 12.5 4.58334V5.41667C12.5 5.52718 12.5439 5.63316 12.6221 5.7113C12.7002 5.78944 12.8062 5.83334 12.9167 5.83334H13.3334C13.4439 5.83334 13.5499 5.87724 13.628 5.95538C13.7061 6.03352 13.75 6.1395 13.75 6.25C13.749 6.36193 13.7256 6.47252 13.6813 6.5753C13.637 6.67808 13.5726 6.77099 13.4919 6.84859C13.4113 6.92619 13.3159 6.98692 13.2115 7.02723C13.1071 7.06754 12.9957 7.08661 12.8838 7.08334C12.7835 7.08332 12.6866 7.11947 12.6108 7.18513C12.5351 7.2508 12.4855 7.34159 12.4713 7.44084C12.3858 8.03532 12.0889 8.57906 11.635 8.97236C11.1811 9.36566 10.6006 9.58216 10 9.58216C9.39945 9.58216 8.81898 9.36566 8.36508 8.97236C7.91118 8.57906 7.61427 8.03532 7.52879 7.44084ZM10 10.4167C10.429 10.4158 10.8537 10.3308 11.25 10.1667V10.8333C11.25 11.1649 11.1183 11.4828 10.8839 11.7172C10.6495 11.9516 10.3316 12.0833 10 12.0833C9.66852 12.0833 9.35058 11.9516 9.11616 11.7172C8.88173 11.4828 8.75004 11.1649 8.75004 10.8333V10.1667C9.14638 10.3308 9.57104 10.4158 10 10.4167ZM5.73629 11.6879L7.93921 11.055C7.96929 11.3397 8.05802 11.6151 8.19979 11.8637C8.34157 12.1124 8.53332 12.3291 8.76296 12.5H4.62837C4.8917 12.1084 5.2836 11.8212 5.73629 11.6879ZM11.3542 19.1667H3.22921C3.1231 19.1669 3.02091 19.1266 2.94348 19.0541C2.86606 18.9815 2.81922 18.8821 2.81254 18.7763L2.50004 13.7763C2.49645 13.7194 2.50457 13.6624 2.52389 13.6087C2.54322 13.5551 2.57334 13.506 2.61239 13.4645C2.65145 13.423 2.69861 13.3899 2.75095 13.3674C2.80329 13.3448 2.85971 13.3332 2.91671 13.3333H11.6667C11.7237 13.3332 11.7801 13.3448 11.8325 13.3674C11.8848 13.3899 11.932 13.423 11.971 13.4645C12.0101 13.506 12.0402 13.5551 12.0595 13.6087C12.0788 13.6624 12.087 13.7194 12.0834 13.7763L11.7709 18.7763C11.7642 18.8821 11.7174 18.9815 11.6399 19.0541C11.5625 19.1266 11.4603 19.1669 11.3542 19.1667ZM12.6846 17.5L12.9142 13.8283C12.9249 13.6579 12.9006 13.4871 12.8427 13.3265C12.7849 13.1658 12.6947 13.0187 12.5778 12.8943C12.4609 12.7698 12.3198 12.6706 12.1631 12.6028C12.0064 12.535 11.8375 12.5 11.6667 12.5H11.2371C11.4668 12.3291 11.6585 12.1124 11.8003 11.8637C11.9421 11.6151 12.0308 11.3397 12.0609 11.055L14.2638 11.6879C14.7587 11.8308 15.1808 12.1564 15.4446 12.5988C15.5991 12.8619 15.6939 13.1558 15.7225 13.4596L15.885 15.4179H15C14.779 15.4179 14.5671 15.5057 14.4108 15.662C14.2545 15.8183 14.1667 16.0302 14.1667 16.2513V17.5013L12.6846 17.5ZM17.5 18.3333C17.5 18.5544 17.4122 18.7663 17.256 18.9226C17.0997 19.0789 16.8877 19.1667 16.6667 19.1667H15.8334C15.6124 19.1667 15.4004 19.0789 15.2441 18.9226C15.0878 18.7663 15 18.5544 15 18.3333V16.25H17.5V18.3333Z" fill="black"/>
</svg>
