<svg width="43" height="43" viewBox="0 0 43 43" fill="none" xmlns="http://www.w3.org/2000/svg">
<g clip-path="url(#clip0_55_1250)">
<path d="M17.7656 34.4414V22.7109C17.7656 17.8707 16.7634 14.3862 14.8535 12.1582L14.666 11.9463C12.7169 9.82104 9.81481 8.68217 5.875 8.59375V13.0117C7.39023 13.1344 8.60987 13.4319 9.49512 13.9424C10.5042 14.5243 11.2038 15.4984 11.6221 16.7949C12.036 18.078 12.2314 19.8482 12.2314 22.0771V22.5771H5.875V34.4414H17.7656ZM37.0488 34.4414V22.7109C37.0488 17.7152 35.9758 14.1635 33.9326 11.9473C31.9717 9.82101 29.097 8.68364 25.2295 8.59375V13.0117C26.7468 13.1366 27.9694 13.448 28.8564 13.9834L28.8574 13.9824C29.8616 14.5877 30.5427 15.561 30.9258 16.8398C31.3012 18.0956 31.4795 19.851 31.4795 22.0771V22.5771H25.2295V34.4414H37.0488Z" stroke="#5249E5"/>
</g>
<defs>
<clipPath id="clip0_55_1250">
<rect width="43" height="43" fill="white" transform="matrix(1 0 0 -1 0 43)"/>
</clipPath>
</defs>
</svg>
