<svg width="26" height="26" viewBox="0 0 26 26" fill="none" xmlns="http://www.w3.org/2000/svg">
<path d="M12.1984 0.766597C12.1457 0.771383 11.9782 0.788131 11.8275 0.800094C8.35048 1.11353 5.09366 2.98933 3.03093 5.87243C1.88231 7.47548 1.14767 9.29386 0.870086 11.2199C0.771975 11.8922 0.76001 12.0908 0.76001 13.0024C0.76001 13.914 0.771975 14.1126 0.870086 14.7849C1.53533 19.3811 4.80651 23.2428 9.24306 24.6736C10.0375 24.9296 10.8751 25.1042 11.8275 25.2095C12.1984 25.2502 13.8017 25.2502 14.1726 25.2095C15.8165 25.0277 17.2092 24.6209 18.5828 23.9199C18.7934 23.8122 18.8341 23.7835 18.8053 23.7596C18.7862 23.7452 17.8888 22.5417 16.812 21.087L14.8546 18.4432L12.4018 14.8136C11.0521 12.8182 9.9418 11.1864 9.93223 11.1864C9.92266 11.184 9.91309 12.7966 9.9083 14.7658C9.90112 18.2135 9.89873 18.3523 9.85566 18.4336C9.79344 18.5509 9.74558 18.5987 9.64508 18.6514C9.5685 18.6896 9.5015 18.6968 9.14016 18.6968H8.72618L8.6161 18.6274C8.54431 18.582 8.49167 18.5222 8.45577 18.4528L8.40552 18.3451L8.41031 13.5479L8.41749 8.74834L8.49167 8.65503C8.52996 8.60479 8.61132 8.54019 8.66875 8.50908C8.76686 8.46123 8.80515 8.45645 9.21913 8.45645C9.70729 8.45645 9.78865 8.47559 9.91548 8.61436C9.95138 8.65264 11.2795 10.6529 12.8684 13.0622C14.4573 15.4716 16.6301 18.7614 17.6974 20.3764L19.6357 23.3122L19.7338 23.2476C20.6024 22.6829 21.5213 21.879 22.2488 21.0416C23.7971 19.2639 24.7949 17.0962 25.1299 14.7849C25.228 14.1126 25.24 13.914 25.24 13.0024C25.24 12.0908 25.228 11.8922 25.1299 11.2199C24.4647 6.62371 21.1935 2.76203 16.757 1.33125C15.9745 1.07764 15.1417 0.902976 14.2085 0.797701C13.9787 0.773775 12.397 0.747457 12.1984 0.766597ZM17.2092 8.16933C17.3241 8.22676 17.4174 8.33682 17.4509 8.45166C17.4701 8.51387 17.4748 9.84416 17.4701 12.8421L17.4629 17.144L16.7043 15.9812L15.9434 14.8184V11.6913C15.9434 9.6695 15.9529 8.53301 15.9673 8.47798C16.0056 8.34399 16.0893 8.23872 16.2042 8.17651C16.3023 8.12627 16.3382 8.12148 16.7139 8.12148C17.068 8.12148 17.1303 8.12627 17.2092 8.16933Z" fill="black"/>
</svg>
